<svg xmlns="http://www.w3.org/2000/svg" width="46" height="46" viewBox="0 0 46 46" fill="none"><rect x="1.5" y="1.5" width="43" height="43" rx="21.5" fill="white"></rect><rect x="1.5" y="1.5" width="43" height="43" rx="21.5" stroke="#FF66C4" stroke-width="3"></rect><path d="M13.4167 30.5835V32.5002C13.4167 33.0085 13.6186 33.496 13.9781 33.8555C14.3375 34.2149 14.825 34.4168 15.3333 34.4168H30.6667C31.175 34.4168 31.6625 34.2149 32.022 33.8555C32.3814 33.496 32.5833 33.0085 32.5833 32.5002V30.5835C32.5833 29.0585 31.9775 27.596 30.8992 26.5176C29.8209 25.4393 28.3583 24.8335 26.8333 24.8335H19.1667C17.6417 24.8335 16.1791 25.4393 15.1008 26.5176C14.0225 27.596 13.4167 29.0585 13.4167 30.5835ZM28.75 15.3335C28.75 16.8585 28.1442 18.321 27.0659 19.3994C25.9875 20.4777 24.525 21.0835 23 21.0835C21.475 21.0835 20.0125 20.4777 18.9341 19.3994C17.8558 18.321 17.25 16.8585 17.25 15.3335C17.25 13.8085 17.8558 12.346 18.9341 11.2676C20.0125 10.1893 21.475 9.5835 23 9.5835C24.525 9.5835 25.9875 10.1893 27.0659 11.2676C28.1442 12.346 28.75 13.8085 28.75 15.3335Z" stroke="#FF66C4" stroke-width="3"></path></svg>