<svg xmlns="http://www.w3.org/2000/svg" width="45" height="45" viewBox="0 0 45 45" fill="none"><rect x="1.5" y="1.5" width="42" height="42" rx="21" fill="white"></rect><rect x="1.5" y="1.5" width="42" height="42" rx="21" stroke="#FF66C4" stroke-width="3"></rect><path d="M16.25 22.4585C16.8025 22.4585 17.3324 22.239 17.7231 21.8483C18.1138 21.4576 18.3333 20.9277 18.3333 20.3752C18.3333 19.8226 18.1138 19.2927 17.7231 18.902C17.3324 18.5113 16.8025 18.2918 16.25 18.2918C15.6975 18.2918 15.1676 18.5113 14.7769 18.902C14.3862 19.2927 14.1667 19.8226 14.1667 20.3752C14.1667 20.9277 14.3862 21.4576 14.7769 21.8483C15.1676 22.239 15.6975 22.4585 16.25 22.4585ZM24.5833 20.3752C24.5833 20.9277 24.3638 21.4576 23.9731 21.8483C23.5824 22.239 23.0525 22.4585 22.5 22.4585C21.9475 22.4585 21.4176 22.239 21.0269 21.8483C20.6362 21.4576 20.4167 20.9277 20.4167 20.3752C20.4167 19.8226 20.6362 19.2927 21.0269 18.902C21.4176 18.5113 21.9475 18.2918 22.5 18.2918C23.0525 18.2918 23.5824 18.5113 23.9731 18.902C24.3638 19.2927 24.5833 19.8226 24.5833 20.3752ZM28.75 22.4585C29.3025 22.4585 29.8324 22.239 30.2231 21.8483C30.6138 21.4576 30.8333 20.9277 30.8333 20.3752C30.8333 19.8226 30.6138 19.2927 30.2231 18.902C29.8324 18.5113 29.3025 18.2918 28.75 18.2918C28.1975 18.2918 27.6676 18.5113 27.2769 18.902C26.8862 19.2927 26.6667 19.8226 26.6667 20.3752C26.6667 20.9277 26.8862 21.4576 27.2769 21.8483C27.6676 22.239 28.1975 22.4585 28.75 22.4585ZM10 27.667C10 28.2195 10.2195 28.7494 10.6102 29.1401C11.0009 29.5308 11.5308 29.7503 12.0833 29.7503H14.1667V33.9171C14.1668 34.3291 14.289 34.7318 14.5179 35.0743C14.7468 35.4168 15.0722 35.6838 15.4528 35.8414C15.8334 35.9991 16.2522 36.0403 16.6563 35.96C17.0604 35.8796 17.4316 35.6813 17.7229 35.39L23.3625 29.7503H32.9167C33.4692 29.7503 33.9991 29.5308 34.3898 29.1401C34.7805 28.7494 35 28.2195 35 27.667V13.0834C35 12.5308 34.7805 12.0009 34.3898 11.6102C33.9991 11.2195 33.4692 11 32.9167 11H12.0833C11.5308 11 11.0009 11.2195 10.6102 11.6102C10.2195 12.0009 10 12.5308 10 13.0834V27.667ZM16.25 33.9171V27.667H12.0833V13.0834H32.9167V27.667H22.5L16.25 33.9171Z" fill="#FF66C4"></path></svg>